<?xml version="1.0" encoding="utf-8"?>
<!-- Generator: Adobe Illustrator 15.1.0, SVG Export Plug-In . SVG Version: 6.00 Build 0)  -->
<!DOCTYPE svg PUBLIC "-//W3C//DTD SVG 1.1//EN" "http://www.w3.org/Graphics/SVG/1.1/DTD/svg11.dtd">
<svg version="1.1" id="Layer_1" xmlns="http://www.w3.org/2000/svg" xmlns:xlink="http://www.w3.org/1999/xlink" x="0px" y="0px"
	 width="137px" height="22.612px" viewBox="0 0 137 22.612" enable-background="new 0 0 137 22.612" xml:space="preserve">
<g>
	<path fill="#FFFFFF" d="M8.883,22.151H0v-3.779h1.211v-6.893H0V7.73h6.143l0.664,1.788c0.5-0.672,1.082-1.226,1.745-1.658
		S10.008,7.21,10.93,7.21c1.115,0,2.014,0.188,2.697,0.562c0.683,0.375,1.212,0.865,1.586,1.471c0.375,0.606,0.625,1.289,0.75,2.048
		c0.125,0.76,0.187,1.514,0.187,2.264v4.816h1.356v3.779h-7.268v-7.874c0-0.25-0.005-0.528-0.015-0.837
		c-0.01-0.308-0.062-0.596-0.159-0.865c-0.097-0.27-0.255-0.5-0.476-0.692c-0.221-0.191-0.543-0.289-0.966-0.289
		c-0.366,0-0.668,0.082-0.908,0.246c-0.241,0.164-0.429,0.375-0.563,0.635c-0.134,0.259-0.227,0.548-0.273,0.864
		c-0.049,0.318-0.072,0.631-0.072,0.938v4.095h2.076V22.151z"/>
	<path fill="#FFFFFF" d="M19.803,8.941c0.289-0.173,0.654-0.375,1.096-0.605c0.442-0.231,0.937-0.457,1.485-0.678
		c0.548-0.221,1.134-0.404,1.759-0.548c0.625-0.144,1.273-0.216,1.947-0.216c0.865,0,1.759,0.091,2.682,0.274
		c0.923,0.183,1.763,0.5,2.524,0.952c0.759,0.452,1.384,1.062,1.874,1.832c0.491,0.77,0.736,1.73,0.736,2.884v5.624h1.73v3.692
		h-6.173l-0.691-1.299c-0.27,0.365-0.573,0.668-0.91,0.908c-0.336,0.242-0.682,0.428-1.038,0.562s-0.707,0.23-1.052,0.289
		c-0.346,0.058-0.644,0.086-0.894,0.086c-0.692,0-1.375-0.096-2.048-0.288s-1.279-0.479-1.817-0.865
		c-0.539-0.384-0.977-0.88-1.313-1.485s-0.504-1.331-0.504-2.178c0-0.808,0.159-1.538,0.476-2.191
		c0.317-0.654,0.75-1.211,1.297-1.674c0.549-0.461,1.188-0.816,1.919-1.066c0.73-0.25,1.5-0.375,2.307-0.375
		c0.423,0,0.802,0.043,1.139,0.13c0.336,0.087,0.625,0.187,0.865,0.303c0.24,0.115,0.433,0.231,0.577,0.347
		c0.144,0.115,0.235,0.191,0.274,0.23v-1.01c0-0.653-0.26-1.086-0.779-1.298c-0.519-0.211-1.173-0.317-1.96-0.317
		c-0.866,0-1.659,0.145-2.38,0.433c-0.721,0.289-1.361,0.587-1.918,0.894L19.803,8.941z M26.206,18.949
		c0.442,0,0.827-0.105,1.154-0.317c0.327-0.211,0.558-0.422,0.692-0.635v-1.096c-0.02-0.038-0.063-0.102-0.13-0.188
		c-0.067-0.086-0.168-0.178-0.303-0.273c-0.135-0.097-0.303-0.183-0.504-0.26c-0.203-0.076-0.458-0.115-0.765-0.115
		c-0.577,0-1,0.145-1.269,0.432c-0.269,0.289-0.403,0.654-0.403,1.097c0,0.403,0.144,0.731,0.432,0.98
		C25.399,18.824,25.763,18.949,26.206,18.949z"/>
	<path fill="#FFFFFF" d="M36.102,7.73h1.557V5.076l5.307-1.702V7.73h2.74v3.75h-2.74v5.134c0,0.25-0.005,0.509-0.014,0.778
		c-0.01,0.27,0.009,0.52,0.057,0.75c0.048,0.23,0.135,0.418,0.26,0.562c0.125,0.145,0.332,0.217,0.62,0.217
		c0.192,0,0.476-0.053,0.851-0.158c0.375-0.106,0.697-0.217,0.967-0.333v3.692c-0.212,0.096-0.481,0.178-0.808,0.245
		c-0.327,0.067-0.664,0.12-1.01,0.159c-0.346,0.037-0.668,0.071-0.966,0.1c-0.298,0.029-0.534,0.044-0.706,0.044
		c-1.078,0-1.918-0.144-2.524-0.433s-1.053-0.692-1.341-1.211c-0.288-0.52-0.471-1.154-0.548-1.904
		c-0.077-0.75-0.125-1.586-0.145-2.509v-5.134h-1.557V7.73z"/>
	<path fill="#FFFFFF" d="M56.036,22.151H47.96v-3.779h1.211v-6.893H47.96V7.73h6.691v10.642h1.384V22.151z M48.768,3.519
		c0-0.327,0.067-0.664,0.202-1.01c0.134-0.346,0.332-0.663,0.591-0.952c0.26-0.288,0.586-0.523,0.981-0.707
		c0.394-0.182,0.841-0.274,1.34-0.274c0.5,0,0.947,0.092,1.342,0.274c0.394,0.183,0.725,0.418,0.995,0.707
		c0.269,0.289,0.476,0.606,0.621,0.952c0.144,0.346,0.216,0.683,0.216,1.01c0,0.807-0.269,1.495-0.807,2.062
		c-0.539,0.567-1.327,0.851-2.366,0.851c-0.461,0-0.879-0.086-1.254-0.259C50.253,6,49.926,5.773,49.647,5.495
		s-0.495-0.591-0.649-0.938S48.768,3.865,48.768,3.519z"/>
	<path fill="#FFFFFF" d="M66.374,17.478c0-0.153,0.024-0.35,0.072-0.59c0.047-0.241,0.11-0.506,0.188-0.794
		c0.077-0.288,0.168-0.586,0.273-0.894c0.106-0.308,0.217-0.605,0.333-0.895l1.384-2.913h-1.529V7.73h7.441v3.663h-1.5
		l-4.989,10.759h-4.471l-5.364-10.759h-1.355V7.73h8.767v3.663h-1.441l1.327,3.058c0.192,0.558,0.355,1.125,0.49,1.701
		s0.221,1.02,0.26,1.326H66.374z"/>
	<path fill="#FFFFFF" d="M90.537,20.161c-1.077,0.922-2.211,1.571-3.403,1.946s-2.538,0.562-4.038,0.562
		c-0.903,0-1.808-0.149-2.711-0.447c-0.904-0.298-1.716-0.759-2.438-1.384c-0.721-0.625-1.312-1.433-1.773-2.423
		c-0.461-0.99-0.691-2.178-0.691-3.562c0-1.174,0.202-2.227,0.605-3.159s0.951-1.725,1.644-2.379
		c0.691-0.653,1.51-1.148,2.451-1.485c0.942-0.336,1.961-0.504,3.058-0.504c0.864,0,1.667,0.105,2.408,0.317
		c0.739,0.212,1.408,0.5,2.005,0.865c0.596,0.366,1.105,0.808,1.528,1.327c0.423,0.52,0.739,1.078,0.952,1.673
		c0.076,0.25,0.153,0.567,0.23,0.952c0.076,0.385,0.129,0.798,0.158,1.24s0.02,0.898-0.029,1.369
		c-0.048,0.473-0.148,0.908-0.303,1.312h-9.085c0.038,0.193,0.101,0.424,0.188,0.692c0.086,0.271,0.234,0.529,0.446,0.778
		c0.212,0.251,0.499,0.463,0.865,0.635c0.364,0.174,0.855,0.26,1.472,0.26c0.25,0,0.523-0.01,0.821-0.028s0.62-0.077,0.966-0.173
		c0.346-0.097,0.711-0.236,1.096-0.419s0.77-0.437,1.154-0.764L90.537,20.161z M83.413,11.219c-0.443,0-0.803,0.087-1.082,0.26
		c-0.278,0.173-0.5,0.379-0.662,0.62c-0.164,0.241-0.279,0.495-0.347,0.765c-0.067,0.269-0.111,0.49-0.13,0.663h4.355
		c0-0.27-0.029-0.544-0.088-0.822c-0.057-0.278-0.158-0.529-0.303-0.75c-0.144-0.221-0.355-0.399-0.634-0.534
		C84.245,11.288,83.874,11.219,83.413,11.219z"/>
	<path fill="#FFFFFF" d="M92.021,19.151c0-0.365,0.071-0.745,0.216-1.139c0.145-0.395,0.351-0.75,0.62-1.068
		c0.27-0.316,0.61-0.576,1.023-0.778s0.88-0.303,1.398-0.303c0.52,0,0.985,0.101,1.398,0.303c0.414,0.202,0.766,0.462,1.053,0.778
		c0.289,0.318,0.506,0.674,0.649,1.068c0.145,0.394,0.217,0.773,0.217,1.139c0,0.865-0.278,1.601-0.837,2.206
		c-0.558,0.606-1.385,0.909-2.48,0.909c-0.48,0-0.918-0.092-1.312-0.274c-0.395-0.183-0.735-0.419-1.024-0.707
		c-0.287-0.288-0.514-0.62-0.678-0.995C92.102,19.915,92.021,19.536,92.021,19.151z"/>
	<path fill="#FFFFFF" d="M109.735,4.038c-0.154-0.077-0.36-0.144-0.619-0.202c-0.261-0.058-0.582-0.086-0.967-0.086
		c-0.615,0-0.924,0.51-0.924,1.529V7.73h2.625v3.75h-2.625v6.893h1.73v3.779h-8.594v-3.779h1.153v-6.893h-1.183V7.73h1.183V5.278
		c0-0.404,0.053-0.909,0.158-1.514c0.106-0.606,0.355-1.187,0.75-1.745c0.394-0.558,0.966-1.033,1.716-1.428
		C104.89,0.198,105.918,0,107.226,0c0.365,0,0.76,0.02,1.183,0.058s0.827,0.091,1.212,0.158c0.385,0.068,0.74,0.145,1.066,0.231
		c0.328,0.086,0.587,0.178,0.779,0.274L109.735,4.038z"/>
	<g>
		<path fill="#FFFFFF" d="M135.587,18.257v-3.979c0-0.884-0.062-1.741-0.188-2.567c-0.126-0.827-0.38-1.562-0.765-2.207
			c-0.386-0.644-0.928-1.163-1.63-1.557c-0.701-0.395-1.639-0.591-2.812-0.591c-1,0-1.846,0.221-2.538,0.664
			c-0.691,0.442-1.259,0.913-1.701,1.413c-0.115-0.173-0.27-0.38-0.462-0.621c-0.192-0.24-0.452-0.466-0.778-0.678
			c-0.327-0.211-0.735-0.394-1.227-0.548c-0.49-0.154-1.1-0.23-1.83-0.23c-0.463,0-0.886,0.082-1.27,0.245
			c-0.385,0.164-0.731,0.36-1.039,0.591c-0.307,0.231-0.572,0.466-0.793,0.707s-0.389,0.428-0.504,0.562l-0.635-1.702h-5.451v3.807
			h1.211v6.807h-1.211v3.779h7.936v-3.779h-1.1v-5.133c0-0.596,0.101-1.034,0.303-1.313c0.201-0.278,0.533-0.418,0.994-0.418
			c0.577,0,0.924,0.255,1.039,0.764c0.115,0.51,0.173,1.352,0.173,2.524v7.355h6.853v-3.865h-1.113v-4.673
			c0-0.614,0.101-1.119,0.303-1.514c0.201-0.395,0.61-0.591,1.226-0.591c0.346,0,0.596,0.12,0.749,0.36
			c0.154,0.241,0.256,0.544,0.303,0.909c0.049,0.364,0.068,0.755,0.059,1.167c-0.01,0.414-0.014,0.794-0.014,1.141v7.066H137v-3.895
			H135.587z"/>
	</g>
</g>
</svg>
